<svg width="71" height="40" viewBox="0 0 71 40" fill="none" xmlns="http://www.w3.org/2000/svg">
<path d="M22.3529 13.5089C23.6377 13.5089 26.1416 13.9331 26.1416 15.4809C26.1416 16.1134 25.7036 16.6641 25.0539 16.6641C24.3312 16.6641 23.8348 16.0464 22.3602 16.0464C20.1775 16.0464 19.046 17.8993 19.046 20.0499C19.046 22.1484 20.1921 23.9492 22.3602 23.9492C23.8421 23.9492 24.4407 23.205 25.1634 23.205C25.9591 23.205 26.3241 24.0013 26.3241 24.4031C26.3241 26.0997 23.6669 26.4867 22.3602 26.4867C18.7832 26.4867 16.3012 23.6441 16.3012 19.9978C16.2939 16.3292 18.7613 13.5089 22.3529 13.5089Z" fill="#007BC3"/>
<path d="M31.0383 20.3841L27.7095 15.696C27.5489 15.4653 27.4613 15.1826 27.4613 14.8998C27.4613 14.1929 27.9869 13.6124 28.7315 13.6124C29.1914 13.6124 29.5929 13.8059 29.8265 14.1408L32.3669 17.8243L34.9 14.1408C35.1263 13.8059 35.5351 13.6124 35.995 13.6124C36.7396 13.6124 37.2652 14.1929 37.2652 14.8998C37.2652 15.1826 37.1776 15.4653 37.017 15.696L33.6882 20.3841V25.0945C33.6882 25.7493 33.3013 26.3818 32.3669 26.3818C31.4325 26.3818 31.0456 25.7493 31.0456 25.0945V20.3841H31.0383Z" fill="#007BC3"/>
<path d="M38.7582 15.0758C38.7582 14.2647 39.3203 13.714 40.116 13.714H43.0433C46.9926 13.714 49.2483 16.2589 49.2483 20.1731C49.2483 23.8715 46.8539 26.275 43.2258 26.275H40.1598C39.5758 26.275 38.7655 25.9551 38.7655 24.9505V15.0758H38.7582ZM41.4008 23.8417H43.182C45.4523 23.8417 46.4962 22.1674 46.4962 20.0541C46.4962 17.7993 45.4377 16.1548 43.0068 16.1548H41.4008V23.8417Z" fill="#007BC3"/>
<path d="M53.598 14.9729C53.8973 14.1618 54.5835 13.507 55.4815 13.507C56.4159 13.507 57.0656 14.1246 57.3649 14.9729L60.8178 24.5649C60.92 24.8476 60.9565 25.0932 60.9565 25.2197C60.9565 25.9043 60.3944 26.3806 59.7374 26.3806C59.0001 26.3806 58.6278 25.9936 58.4526 25.4653L57.927 23.8058H53.0286L52.503 25.4504C52.3278 26.001 51.9556 26.388 51.2329 26.388C50.5248 26.388 49.9261 25.8597 49.9261 25.1527C49.9261 24.87 50.0137 24.6616 50.0502 24.5723L53.598 14.9729ZM53.7879 21.3725H57.1386L55.5033 16.2603H55.4669L53.7879 21.3725Z" fill="#007BC3"/>
<path d="M70.0875 15.2702C70.0875 15.9622 69.6276 16.5724 68.9049 16.5724C68.1822 16.5724 67.6201 16.0441 66.5616 16.0441C65.8024 16.0441 65.1162 16.4459 65.1162 17.1901C65.1162 19.0058 71 17.8449 71 22.3916C71 24.9142 68.9195 26.4844 66.4886 26.4844C65.1308 26.4844 62.2035 26.1644 62.2035 24.505C62.2035 23.8203 62.6634 23.2548 63.3861 23.2548C64.2183 23.2548 65.2038 23.9394 66.3426 23.9394C67.5033 23.9394 68.1384 23.2846 68.1384 22.4214C68.1384 20.3378 62.2546 21.5954 62.2546 17.5026C62.2546 15.0321 64.284 13.4991 66.62 13.4991C67.6201 13.5066 70.0875 13.8787 70.0875 15.2702Z" fill="#007BC3"/>
<path d="M12.5342 20.8156H7.71623C7.48263 20.8156 7.28552 21.009 7.28552 21.2472V26.0692C7.28552 26.3073 7.47533 26.5008 7.71623 26.5008H12.5342C12.7678 26.5008 12.9649 26.3073 12.9649 26.0692V21.2472C12.9649 21.0016 12.7751 20.8156 12.5342 20.8156Z" fill="#007BC3"/>
<path d="M3.21236 19.9441C4.9863 19.9441 6.42437 18.5049 6.42437 16.7294C6.42437 14.954 4.9863 13.5148 3.21236 13.5148C1.43842 13.5148 0.000366211 14.954 0.000366211 16.7294C0.000366211 18.5049 1.43842 19.9441 3.21236 19.9441Z" fill="#007BC3"/>
<path d="M12.7538 14.9582L10.3448 13.5667C10.2134 13.4923 10.0455 13.4923 9.91406 13.5667L7.50507 14.9582C7.37367 15.0326 7.29337 15.174 7.29337 15.3303V18.1134C7.29337 18.2696 7.37367 18.411 7.50507 18.4854L9.91406 19.877C10.0455 19.9514 10.2134 19.9514 10.3448 19.877L12.7538 18.4854C12.8852 18.411 12.9655 18.2696 12.9655 18.1134V15.3303C12.9655 15.174 12.8852 15.0326 12.7538 14.9582Z" fill="#30B1E0"/>
<path d="M6.3665 25.8445L3.6071 21.0374C3.4392 20.7546 3.0304 20.7546 2.8625 21.0374L0.0592937 25.8445C-0.108606 26.1273 0.103095 26.4845 0.431595 26.4845H6.0015C6.33 26.4919 6.5344 26.1347 6.3665 25.8445Z" fill="#003A84"/>
</svg>
