<svg width="292" height="64" viewBox="0 0 292 64" fill="none" xmlns="http://www.w3.org/2000/svg">
<path d="M0 4C0 1.79086 1.79086 0 4 0H288C290.209 0 292 1.79086 292 4V64H0V4Z" fill="#F8F8F8"/>
<g clip-path="url(#clip0_2_329)">
<path d="M47.4 30.35C47.3 29.3 46.4 28.5 45.35 28.5C44.1 28.5 43.3 27.5 43.3 26.45C43.3 25.95 43.5 25.45 43.9 25C44.65 24.25 44.7 23.1 44.05 22.3C43.7 21.85 43.3 21.45 42.9 21.05C42.45 20.6 42.05 20.25 41.55 19.85C40.8 19.25 39.65 19.3 38.95 20L39 20.05L35 24.05C36 24.45 35.85 25.95 34.75 26.2C34.7 26.2 34.7 26.2 34.65 26.2C31.15 27 28.45 30 28.05 33.55C27.9 34.95 28.1 36.25 28.55 37.45C28.95 38.5 27.7 39.4 26.8 38.7C26.2 38.25 25.65 37.7 25.2 37.05C24.45 36.05 23.05 35.95 22.2 36.85L20.05 39C19.35 39.7 19.25 40.85 19.9 41.65C20.25 42.1 20.65 42.55 21.05 42.95C21.5 43.4 21.9 43.75 22.4 44.15C23.15 44.75 24.3 44.7 25 44L25.05 43.95C26.35 42.65 28.55 43.55 28.55 45.4C28.55 45.95 28.75 46.4 29.1 46.75C29.45 47.1 29.9 47.35 30.4 47.4C31.5 47.5 32.65 47.5 33.75 47.4C34.8 47.3 35.6 46.4 35.6 45.35C35.6 44.1 36.6 43.3 37.65 43.3C38.15 43.3 38.65 43.5 39.1 43.9C39.85 44.65 41 44.7 41.8 44.05C42.25 43.7 42.65 43.3 43.05 42.9C43.5 42.45 43.85 42.05 44.25 41.55C44.85 40.8 44.8 39.65 44.1 38.95L43.95 39C42.65 37.7 43.55 35.5 45.4 35.5C45.95 35.5 46.4 35.3 46.75 34.95C47.1 34.6 47.35 34.15 47.4 33.65C47.55 32.55 47.55 31.45 47.4 30.35Z" fill="#FADB61"/>
<path d="M32 48C31.45 48 30.85 47.95 30.3 47.9C29.65 47.85 29.1 47.55 28.65 47.05C28.25 46.6 28 46 28 45.4C28 44.65 27.5 44.15 27.05 44C26.6 43.8 25.9 43.8 25.35 44.35L25.3 44.4C24.4 45.3 23 45.35 22.05 44.6C21.55 44.2 21.1 43.8 20.7 43.4C20.25 42.95 19.85 42.5 19.5 42.05C18.7 41.05 18.8 39.65 19.7 38.75L21.85 36.6C22.35 36.1 23.05 35.8 23.8 35.85C24.55 35.9 25.2 36.25 25.65 36.85C27.1 38.85 29.45 40 32 40C34.25 40 36.45 39.05 37.95 37.35C39.5 35.65 40.2 33.4 39.95 31.1C39.55 27.45 36.6 24.45 32.9 24.05C30.65 23.8 28.5 24.45 26.85 25.9C25.2 27.3 24.15 29.35 24 31.55C24 31.85 23.75 32.05 23.45 32C23.15 32 22.95 31.75 23 31.45C23.15 29 24.3 26.7 26.2 25.1C28.1 23.5 30.5 22.8 33 23.05C37.15 23.5 40.5 26.85 40.95 31C41.25 33.6 40.45 36.1 38.7 38.05C37 39.95 34.55 41.05 32 41.05C29.15 41.05 26.5 39.75 24.8 37.45C24.55 37.1 24.1 36.85 23.7 36.85C23.25 36.8 22.85 36.95 22.55 37.3L20.45 39.45C19.9 40 19.85 40.85 20.35 41.45C20.7 41.9 21.05 42.3 21.45 42.7C21.85 43.1 22.3 43.5 22.75 43.85C23.35 44.3 24.15 44.25 24.65 43.75L24.7 43.7C25.45 42.95 26.5 42.75 27.45 43.15C28.4 43.55 29 44.45 29 45.5C29 45.9 29.15 46.25 29.4 46.55C29.65 46.85 30 47 30.4 47.05C31.45 47.15 32.55 47.15 33.6 47.05C34.4 46.95 35 46.3 35 45.5C35 43.9 36.3 42.95 37.55 42.95C38.2 42.95 38.85 43.2 39.35 43.7C39.9 44.25 40.8 44.3 41.4 43.85C41.85 43.5 42.25 43.15 42.6 42.75C43 42.35 43.4 41.9 43.75 41.45C44.2 40.85 44.15 40.05 43.65 39.55L43.6 39.5C42.85 38.75 42.65 37.7 43.05 36.75C43.45 35.8 44.35 35.2 45.4 35.2C45.8 35.2 46.15 35.05 46.45 34.8C46.75 34.55 46.9 34.2 46.95 33.8C47.05 32.75 47.05 31.65 46.95 30.6C46.85 29.8 46.2 29.2 45.4 29.2C43.8 29.2 42.85 27.9 42.85 26.65C42.85 26 43.1 25.35 43.6 24.85C44.15 24.3 44.2 23.4 43.75 22.8C43.4 22.4 43.05 21.95 42.65 21.6C42.25 21.2 41.8 20.8 41.35 20.45C40.8 20 39.95 20.05 39.45 20.55L39.4 20.6C38.65 21.35 37.6 21.55 36.65 21.15C35.6 20.55 35 19.65 35 18.6C35 18.2 34.85 17.85 34.6 17.55C34.35 17.25 34 17.1 33.6 17.05C32.55 16.95 31.45 16.95 30.4 17.05C29.6 17.15 29 17.85 29 18.6C29 20.2 27.7 21.15 26.45 21.15C25.8 21.15 25.15 20.9 24.65 20.4C24.1 19.85 23.2 19.8 22.6 20.25C22.15 20.6 21.75 20.95 21.4 21.35C21 21.75 20.6 22.2 20.25 22.65C19.8 23.25 19.85 24.05 20.35 24.55L20.4 24.6C21.15 25.35 21.35 26.4 20.95 27.35C20.55 28.4 19.65 29 18.6 29C18.2 29 17.85 29.15 17.55 29.4C17.25 29.65 17.1 30 17.05 30.4C16.95 31.45 16.95 32.55 17.05 33.6C17.15 34.4 17.85 35 18.6 35H19.5C19.8 35 20 35.2 20 35.5C20 35.8 19.8 36 19.5 36H18.6C17.3 36 16.2 35 16.05 33.7C15.95 32.55 15.95 31.4 16.05 30.25C16.1 29.6 16.4 29.05 16.9 28.6C17.4 28.25 18 28 18.6 28C19.35 28 19.85 27.5 20 27.05C20.2 26.6 20.2 25.9 19.65 25.35L19.6 25.3C18.7 24.4 18.65 23 19.4 22.05C19.8 21.55 20.2 21.1 20.6 20.7C21.1 20.25 21.55 19.9 22 19.5C23 18.7 24.45 18.8 25.4 19.7C25.8 20.1 26.2 20.15 26.5 20.15C27.25 20.15 28.05 19.55 28.05 18.6C28.05 17.3 29.05 16.2 30.35 16.05C31.5 15.95 32.65 15.95 33.8 16.05C34.45 16.1 35 16.4 35.45 16.9C35.75 17.4 36 18 36 18.6C36 19.35 36.5 19.85 36.95 20C37.4 20.2 38.1 20.2 38.65 19.65L38.7 19.6C39.6 18.7 41 18.65 41.95 19.4C42.45 19.8 42.9 20.2 43.3 20.6C43.7 21 44.1 21.45 44.45 21.9C45.25 22.9 45.15 24.35 44.25 25.3C43.85 25.7 43.8 26.1 43.8 26.4C43.8 27.15 44.4 27.95 45.35 27.95C46.65 27.95 47.75 28.95 47.9 30.25C48 31.4 48 32.55 47.9 33.7C47.85 34.35 47.55 34.9 47.05 35.35C46.6 35.75 46 36 45.4 36C44.65 36 44.15 36.5 44 36.95C43.8 37.4 43.8 38.1 44.35 38.65L44.4 38.7C45.3 39.6 45.35 41 44.6 41.95C44.2 42.45 43.8 42.9 43.4 43.3C43 43.7 42.55 44.1 42.1 44.45C41.1 45.25 39.65 45.15 38.7 44.25C38.3 43.85 37.9 43.8 37.6 43.8C36.85 43.8 36.05 44.4 36.05 45.35C36.05 46.65 35.05 47.75 33.75 47.9C33.15 47.95 32.55 48 32 48Z" fill="#2CB0ED"/>
</g>
<path d="M60.8 25.712L60.096 26.8C61.024 27.328 62.768 28.48 63.536 29.072L64.288 27.984C63.584 27.472 61.744 26.24 60.8 25.712ZM58.4 37.152L59.152 38.448C60.624 38.144 62.832 37.408 64.448 36.464C67.008 34.96 69.216 32.896 70.608 30.752L69.824 29.424C68.544 31.68 66.432 33.776 63.776 35.296C62.144 36.208 60.16 36.848 58.4 37.152ZM58.4 29.312L57.68 30.4C58.656 30.912 60.384 32.016 61.168 32.592L61.904 31.472C61.216 30.976 59.344 29.824 58.4 29.312ZM84.784 27.312L83.984 26.688C83.728 26.768 83.296 26.816 82.784 26.816C82.176 26.816 77.232 26.816 76.608 26.816C76.112 26.816 75.2 26.752 74.992 26.72V28.16C75.168 28.144 76.032 28.08 76.608 28.08C77.152 28.08 82.272 28.08 82.848 28.08C82.432 29.408 81.264 31.312 80.176 32.544C78.528 34.368 76.176 36.288 73.584 37.28L74.608 38.352C77.136 37.2 79.424 35.296 81.216 33.296C82.544 31.824 83.76 29.584 84.4 28C84.48 27.792 84.688 27.44 84.784 27.312ZM81.424 32.464L80.512 33.36C82.24 34.88 84.112 36.928 85.264 38.448L86.368 37.472C85.28 36.144 83.152 33.904 81.424 32.464ZM91.424 26.176V27.504C91.84 27.472 92.368 27.44 92.896 27.44C93.808 27.44 98.464 27.44 99.36 27.44C99.808 27.44 100.368 27.472 100.848 27.504V26.176C100.384 26.224 99.808 26.256 99.36 26.256C98.464 26.256 93.808 26.256 92.88 26.256C92.352 26.256 91.888 26.224 91.424 26.176ZM89.52 30.192V31.52C89.952 31.488 90.432 31.472 90.912 31.472C91.84 31.472 100.528 31.472 101.376 31.472C101.776 31.472 102.272 31.488 102.64 31.504V30.192C102.24 30.24 101.712 30.256 101.376 30.256C100.528 30.256 91.84 30.256 90.912 30.256C90.416 30.256 89.952 30.24 89.52 30.192ZM97.056 30.832L95.712 30.848C95.696 32.608 95.568 34.176 94.768 35.44C94.144 36.464 92.992 37.376 91.76 37.904L92.944 38.768C94.288 38.064 95.504 36.928 96.08 35.856C96.8 34.512 97.056 32.848 97.056 30.832ZM111.868 26.08L110.268 25.744C110.22 26.176 110.156 26.544 109.948 27.28C109.468 28.976 107.612 34.768 106.812 36.608L108.252 36.56C108.94 34.944 110.796 29.2 111.308 27.568C111.532 26.88 111.708 26.464 111.868 26.08ZM114.908 31.44L113.692 31.968C114.844 33.488 116.476 36.816 117.116 38.544L118.444 37.952C117.788 36.304 116.028 33.072 114.908 31.44ZM106.188 36.224C105.724 36.256 105.164 36.272 104.684 36.256L104.94 37.728C105.388 37.664 105.868 37.6 106.268 37.568C108.524 37.344 114.412 36.704 116.636 36.416L116.284 35.168C114.22 35.472 108.492 36.112 106.188 36.224ZM120.988 26.112V27.136H134.092V26.112H120.988ZM121.5 37.84V38.848H133.612V37.84H121.5ZM124.14 28.192V29.104H130.876V28.192H124.14ZM124.14 30.208V31.12H130.876V30.208H124.14ZM120.236 32.272V33.28H134.78V32.272H120.236ZM123.596 35.136V36.128H131.452V35.136H123.596ZM123.42 24.576V32.832H124.62V24.576H123.42ZM130.46 24.576V32.832H131.66V24.576H130.46ZM126.86 33.792V38.4H128.092V33.792H126.86ZM124.268 32.544C123.404 33.952 121.692 35.328 120.076 35.968C120.348 36.192 120.684 36.608 120.86 36.88C122.54 36.096 124.3 34.576 125.276 32.928L124.268 32.544ZM130.812 32.544L129.868 32.912C130.796 34.48 132.492 35.968 134.188 36.688C134.364 36.4 134.716 35.984 134.988 35.76C133.324 35.168 131.66 33.904 130.812 32.544ZM136.54 27.936V29.152H150.508V27.936H136.54ZM139.74 35.072V36.288H147.196V35.072H139.74ZM142.86 24.576V39.28H144.124V24.576H142.86ZM142.492 28.336C141.212 31.408 138.668 34.384 135.996 35.776C136.268 36.016 136.668 36.464 136.86 36.768C139.628 35.152 142.14 32.096 143.564 28.704L142.492 28.336ZM144.524 28.384L143.452 28.752C144.86 32.112 147.324 35.168 150.156 36.736C150.348 36.4 150.764 35.92 151.068 35.664C148.3 34.336 145.788 31.424 144.524 28.384ZM159.452 25.072V27.008C159.452 28.128 159.212 29.456 157.676 30.448C157.916 30.608 158.38 31.024 158.54 31.248C160.252 30.112 160.604 28.416 160.604 27.024V25.072H159.452ZM163.356 25.072V29.024C163.356 30.16 163.644 30.48 164.62 30.48C164.828 30.48 165.532 30.48 165.74 30.48C166.604 30.48 166.892 29.984 166.988 28.112C166.684 28.032 166.204 27.856 165.98 27.68C165.948 29.216 165.884 29.424 165.612 29.424C165.452 29.424 164.924 29.424 164.796 29.424C164.54 29.424 164.492 29.36 164.492 29.008V25.072H163.356ZM160.316 32.624L159.244 32.96C160.524 36.096 162.908 38.304 166.236 39.28C166.396 38.976 166.748 38.496 167.02 38.24C163.804 37.424 161.42 35.376 160.316 32.624ZM164.796 31.504V31.696C163.836 35.248 160.94 37.408 157.708 38.224C157.932 38.48 158.236 38.992 158.364 39.28C161.868 38.256 164.876 35.952 166.012 31.76L165.244 31.456L165.036 31.504H164.796ZM158.412 31.504V32.592H165.26V31.504H158.412ZM159.932 25.072V26.144H163.932V25.072H159.932ZM152.876 29.408V30.368H157.644V29.408H152.876ZM152.956 25.136V26.096H157.612V25.136H152.956ZM152.876 31.552V32.512H157.644V31.552H152.876ZM152.124 27.232V28.224H158.204V27.232H152.124ZM153.452 33.712V34.704H156.588V37.376H153.452V38.384H157.644V33.712H153.452ZM152.86 33.712V39.12H153.9V33.712H152.86ZM170.892 29.456V30.608H180.22V29.456H170.892ZM175.5 33.28V34.416H180.892V33.28H175.5ZM174.86 30.048V37.984L176.108 38.144V30.048H174.86ZM171.068 31.984C170.716 34.88 169.852 37.168 168.06 38.56C168.348 38.736 168.86 39.152 169.052 39.36C170.86 37.792 171.868 35.344 172.316 32.112L171.068 31.984ZM171.82 34.048L170.844 34.416C172.22 38.32 174.828 39.072 178.636 39.072H182.396C182.444 38.72 182.652 38.144 182.844 37.856C182.06 37.872 179.292 37.872 178.7 37.872C175.452 37.872 172.956 37.312 171.82 34.048ZM174.844 24.576V27.168H176.108V24.576H174.844ZM168.828 26.4V29.888H170.012V27.552H180.972V29.888H182.204V26.4H168.828Z" fill="#333333"/>
<defs>
<clipPath id="clip0_2_329">
<rect width="32" height="32" fill="white" transform="translate(16 16)"/>
</clipPath>
</defs>
</svg>
