<svg width="40" height="40" viewBox="0 0 40 40" fill="none" xmlns="http://www.w3.org/2000/svg">
<g style="mix-blend-mode:multiply">
<path fill-rule="evenodd" clip-rule="evenodd" d="M6.33329 10C4.49236 10 3 11.4924 3 13.3333V26.6664C3 28.271 4.13374 29.6108 5.64385 29.9284C4.13569 29.6093 3.00391 28.2704 3.00391 26.6673C3.00391 25.7466 3.37717 24.9131 3.98062 24.3099L3.98047 24.3097L9.66658 18.6236V13.3333C9.66658 11.4924 8.17421 10 6.33329 10Z" fill="#F8BF2D"/>
</g>
<g style="mix-blend-mode:multiply">
<path fill-rule="evenodd" clip-rule="evenodd" d="M22.0145 29.0235L22.0139 29.0229C21.4108 29.6258 20.5777 29.9987 19.6575 29.9987C17.8166 29.9987 16.3242 28.5063 16.3242 26.6654C16.3242 25.713 16.7236 24.8539 17.3641 24.2465L22.9908 18.6198V26.6665C22.9908 27.587 22.6177 28.4203 22.0145 29.0235Z" fill="#003993"/>
</g>
<g style="mix-blend-mode:multiply">
<path fill-rule="evenodd" clip-rule="evenodd" d="M22.0209 15.6878C22.6226 15.0848 22.9946 14.2525 22.9946 13.3333C22.9946 11.4943 21.5055 10.0032 19.6672 10C17.829 10.0032 16.3398 11.4943 16.3398 13.3333V21.3744L22.0237 15.6905L22.0209 15.6878Z" fill="#007BC3"/>
</g>
<g style="mix-blend-mode:multiply">
<path fill-rule="evenodd" clip-rule="evenodd" d="M9.67049 18.6196L16.3359 15.9758V21.3704V21.3821L8.72029 28.9978C8.11513 29.6165 7.27101 30.0004 6.3372 30.0004C4.49627 30.0004 3.00391 28.5081 3.00391 26.6672C3.00391 25.7465 3.37717 24.913 3.98062 24.3098L3.98047 24.3096L9.67049 18.6196Z" fill="#22AEE5"/>
</g>
<g style="mix-blend-mode:multiply">
<path fill-rule="evenodd" clip-rule="evenodd" d="M36.319 13.3333C36.319 14.2525 35.9469 15.0848 35.3452 15.6878L35.3479 15.6906L22.1498 28.8887C22.6777 28.2989 22.9986 27.5202 22.9986 26.6665V18.6119L30.5168 11.0937C31.1266 10.4219 32.0069 10 32.9857 10C34.8266 10 36.319 11.4924 36.319 13.3333ZM16.332 26.4373C16.3269 26.5133 16.3242 26.59 16.3242 26.6673C16.3242 28.5082 17.8166 30.0006 19.6575 30.0006C19.7802 30.0006 19.9013 29.994 20.0206 29.981C19.9038 29.9934 19.7853 29.9997 19.6653 29.9997C17.8244 29.9997 16.332 28.5074 16.332 26.6664V26.4373Z" fill="#684AA8"/>
</g>
<g style="mix-blend-mode:multiply">
<path fill-rule="evenodd" clip-rule="evenodd" d="M16.3242 26.4372V21.3744L21.8907 15.8079C22.5662 15.1979 22.9908 14.3152 22.9908 13.3333L22.9908 18.6118L17.2929 24.3096L17.2931 24.3098C16.7403 24.8624 16.3807 25.6082 16.3242 26.4372ZM20.0073 29.9816C20.7996 29.8971 21.509 29.5349 22.0362 28.9944L22.1429 28.8877C21.6055 29.4885 20.8535 29.8933 20.0073 29.9816Z" fill="#22AEE5"/>
</g>
</svg>
